<svg xmlns="http://www.w3.org/2000/svg" viewBox="0 0 32 32">
  <defs>
    <radialGradient id="blueGrad" cx="50%" cy="40%">
      <stop offset="0%" style="stop-color:#4a9fd8;stop-opacity:1" />
      <stop offset="100%" style="stop-color:#1a5a8a;stop-opacity:1" />
    </radialGradient>
  </defs>
  
  <circle cx="16" cy="16" r="16" fill="url(#blueGrad)"/>
  
  <path d="M 10 8 L 10 24 L 13 24 L 13 18 L 17 18 C 20.5 18 23 16.2 23 12.5 C 23 8.8 20.5 7 17 7 Z M 13 10 L 16.5 10 C 18.5 10 20 10.8 20 12.5 C 20 14.2 18.5 15 16.5 15 L 13 15 Z" fill="#ffffff" stroke="#ffffff" stroke-width="0.3"/>
  
  <path d="M 15.5 6.5 C 16 6.3 16.5 6.5 17 7 L 17.8 7.8 C 18 7.5 18.3 7.2 18.6 7" fill="none" stroke="#ffffff" stroke-width="0.7" stroke-linecap="round" opacity="0.9"/>
  
  <path d="M 20.5 15.8 C 21 16.5 21.3 17.2 21.5 18" fill="none" stroke="#ffffff" stroke-width="0.6" stroke-linecap="round" opacity="0.8"/>
</svg>